<svg id="Layer_1" data-name="Layer 1" xmlns="http://www.w3.org/2000/svg" viewBox="0 0 6.81 7.87"><defs><style>.cls-1{fill:#fff;}</style></defs><path class="cls-1" d="M7.73,2.43l-.34-.19-.72-.43L6.3,1.6l-.14-.08v.82l.14.08.37.21.72.42.34.2V6.31l-.34.19L6.3,7.13l-.14.08-.34.2-.52.3-.13.07L5,7.9l-.11-.06V2.08l-.68.39L3.83,3.64l-.14.51L3.28,3l-.7.45V6.13l.7.4V4.47l.39,1.12,0,0,.14-.34.34-.78v3.8l.09.06.59.34L5,8.71l.21-.11.5-.29.15-.09L6,8.12,6.16,8l.14-.08.37-.21.72-.42.34-.19.68-.39V2.83Zm-3.56.31v0Z" transform="translate(-1.6 -0.85)"/><polygon class="cls-1" points="5.8 2.55 5.8 5.32 5.11 5.72 5.07 5.59 4.71 4.46 4.57 4.97 4.22 6.23 3.57 6.6 3.57 0.92 3.37 0.8 3.25 0.87 3.08 0.97 3.08 0.97 2.57 1.26 2.24 1.46 2.09 1.54 1.68 1.77 0.98 2.17 0.68 2.35 0.68 5.49 0.98 5.67 1.68 6.07 2.09 6.31 2.24 6.4 2.24 7.21 2.09 7.13 1.68 6.89 0.98 6.48 0.68 6.31 0 5.91 0 1.96 0.68 1.57 0.98 1.4 1.68 0.99 2.09 0.76 2.24 0.67 2.41 0.57 2.57 0.48 2.7 0.41 3.25 0.09 3.41 0 3.57 0.1 4.08 0.39 4.22 0.47 4.22 4.26 4.57 3.38 4.67 3.13 4.71 3.23 5.07 4.17 5.07 2.12 5.8 2.55"/></svg>