<svg xmlns="http://www.w3.org/2000/svg" xmlns:xlink="http://www.w3.org/1999/xlink" width="200" zoomAndPan="magnify" viewBox="0 0 150 149.999998" height="200" preserveAspectRatio="xMidYMid meet" version="1.0"><defs><clipPath id="20d3b78eb7"><path d="M 2.382812 11.753906 L 147.882812 11.753906 L 147.882812 125.753906 L 2.382812 125.753906 Z M 2.382812 11.753906 " clip-rule="nonzero"/></clipPath></defs><g clip-path="url(#20d3b78eb7)"><path fill="#f97316" d="M 112.324219 68.449219 L 90.554688 68.449219 L 90.554688 11.789062 L 147.859375 11.789062 L 147.859375 59.550781 C 147.859375 82.921875 142.160156 99.664062 130.796875 109.8125 C 119.429688 119.960938 103.234375 125.273438 82.234375 125.753906 L 81.945312 102.769531 C 106.976562 100.144531 114.214844 89.195312 112.324219 68.449219 Z M 32.230469 68.449219 L 10.460938 68.449219 L 10.460938 11.789062 L 67.761719 11.789062 L 67.761719 59.550781 C 67.761719 82.921875 62.066406 99.664062 50.699219 109.8125 C 39.335938 119.960938 23.136719 125.273438 2.136719 125.753906 L 2.136719 102.542969 C 27.171875 99.953125 34.117188 89.195312 32.230469 68.449219 Z M 32.230469 68.449219 " fill-opacity="1" fill-rule="nonzero"/></g></svg>